<svg version="1.1" id="Layer_1" xmlns="http://www.w3.org/2000/svg" xmlns:xlink="http://www.w3.org/1999/xlink" x="0px" y="0px"
	 width="100%" viewBox="0 0 1241 1241" enable-background="new 0 0 1241 1241" xml:space="preserve">
<path fill="#FFFFFF" opacity="1.000000" stroke="none" 
	d="
M697.000000,1242.000000 
	C466.166656,1242.000000 235.833328,1241.989380 5.500042,1242.093506 
	C1.750801,1242.095215 0.906142,1241.249023 0.907045,1237.500000 
	C1.005966,826.833313 1.005966,416.166656 0.907045,5.500022 
	C0.906142,1.750939 1.750939,0.906140 5.500022,0.907044 
	C416.166656,1.005980 826.833313,1.005980 1237.500000,0.907044 
	C1241.249023,0.906140 1242.093994,1.750938 1242.093018,5.500022 
	C1241.994141,416.166656 1241.994141,826.833313 1242.093018,1237.500000 
	C1242.093872,1241.249023 1241.249268,1242.096069 1237.500000,1242.093872 
	C1057.500000,1241.986572 877.500000,1242.000000 697.000000,1242.000000 
z"/>
<path fill="#939F90" opacity="1.000000" stroke="none" 
	d="
M534.750000,720.250000 
	C554.875916,740.365356 574.751892,760.230713 595.532227,781.000000 
	C592.926208,781.000000 591.519775,781.000000 590.113403,781.000000 
	C560.455322,781.000000 530.797058,780.956604 501.139374,781.062195 
	C497.916901,781.073669 495.532928,780.301575 493.282867,777.884033 
	C487.613373,771.792236 481.675751,765.949951 475.822571,759.984131 
	C469.125763,765.586670 464.113922,772.329529 457.379425,777.292236 
	C455.527618,778.656860 454.848328,778.370789 453.460876,777.023254 
	C446.077423,769.852600 438.555878,762.824097 431.173523,755.652344 
	C416.860413,741.747375 402.663269,727.722412 388.278748,713.892090 
	C385.768860,711.478821 384.881958,709.019348 384.926025,705.600098 
	C385.104279,691.773071 385.058929,677.941956 384.946381,664.113525 
	C384.925812,661.584045 385.635010,659.777954 387.436371,657.982910 
	C416.351990,629.168762 445.227783,600.314392 474.024414,571.381409 
	C476.270325,569.124817 477.522522,568.901855 479.909973,571.298889 
	C517.417419,608.957947 555.026428,646.515930 592.614136,684.095093 
	C593.907227,685.387939 595.060242,686.580994 595.047302,688.728882 
	C594.954346,704.202332 594.997559,719.676575 594.997559,735.558472 
	C592.831604,734.924377 591.850220,733.313782 590.643555,732.108398 
	C554.099243,695.606140 517.521118,659.137268 481.150482,622.462585 
	C477.621887,618.904541 475.988617,619.319031 472.719604,622.621826 
	C445.644409,649.976685 418.366669,677.130981 391.156647,704.352417 
	C389.899506,705.610107 388.703888,706.929321 386.739502,709.000000 
	C394.752258,709.000000 401.819672,709.060730 408.885101,708.969238 
	C411.601898,708.934082 413.984741,709.498535 416.468170,710.740784 
	C427.969421,716.493713 439.638611,721.911255 451.129333,727.684448 
	C453.717773,728.984863 455.108398,728.511230 457.010040,726.583252 
	C469.412048,714.009277 481.941254,701.560791 494.429535,689.071899 
	C499.000427,684.500854 499.001312,684.501526 503.745911,689.246155 
	C513.997314,699.497375 524.248657,709.748718 534.750000,720.250000 
z"/>
<path fill="#939F90" opacity="1.000000" stroke="none" 
	d="
M728.742615,533.506226 
	C724.521118,544.714905 719.184631,554.831970 712.074036,564.030396 
	C710.259094,566.378174 707.973206,568.261536 706.365295,570.856323 
	C704.789368,573.399353 702.979553,571.473633 701.530334,570.023071 
	C695.640930,564.128296 689.618713,558.358887 683.911987,552.292542 
	C681.574097,549.807373 680.197632,550.064697 678.016235,552.386169 
	C673.225464,557.484497 668.112976,562.278870 663.244324,567.306335 
	C661.332336,569.280701 659.906982,569.337341 657.823425,567.418030 
	C653.091492,563.059265 648.042480,559.045349 643.293823,554.703735 
	C641.619629,553.173096 640.544922,552.716614 638.852905,554.594360 
	C634.304199,559.642456 629.647522,564.594360 624.971985,569.526062 
	C623.612915,570.959534 624.025635,572.637024 624.019409,574.243591 
	C623.980896,584.242798 623.854675,594.245483 624.077942,604.239807 
	C624.157410,607.796997 623.439575,609.145447 619.490112,609.098572 
	C600.827271,608.877319 582.159668,608.924744 563.495361,609.069336 
	C560.150635,609.095215 558.887695,608.386536 558.916443,604.726929 
	C559.086304,583.062988 559.036743,561.396851 558.948242,539.731873 
	C558.938538,537.348816 559.716980,535.704834 561.359558,534.071350 
	C578.257629,517.266846 595.152954,500.458466 611.885620,483.489990 
	C614.166443,481.177002 615.181335,481.577515 617.212524,483.624237 
	C636.934387,503.497192 656.821899,523.205933 676.507935,543.114075 
	C679.906921,546.551514 681.606445,546.072021 684.458496,542.353516 
	C692.419189,531.974548 696.595032,520.384949 698.083740,507.472382 
	C700.153015,489.525024 695.070435,473.582977 684.609985,459.443634 
	C672.320374,442.831665 655.516907,433.768127 634.769043,431.953583 
	C611.505615,429.919067 588.214722,431.519104 564.942017,431.034729 
	C554.947021,430.826721 544.942444,430.900513 534.945679,431.059998 
	C531.963684,431.107544 530.854919,430.352997 530.929138,427.175842 
	C531.135193,418.347900 531.091553,409.510468 530.947449,400.680084 
	C530.902161,397.904114 531.699463,396.939514 534.588135,396.946320 
	C570.419006,397.031006 606.276489,396.186249 642.070374,397.339600 
	C660.540222,397.934784 677.540405,405.610748 692.365173,416.974518 
	C705.097290,426.734192 715.827209,438.460754 722.869690,452.981445 
	C728.176575,463.923462 731.606812,475.478577 733.182129,487.741760 
	C735.184875,503.333466 732.954651,518.256287 728.742615,533.506226 
z"/>
<path fill="#939F90" opacity="1.000000" stroke="none" 
	d="
M584.647034,845.997009 
	C583.075195,845.882385 581.489990,845.969604 582.570923,844.128479 
	C583.227234,843.010681 584.356445,842.167603 585.286621,841.214111 
	C602.839111,823.221069 620.376892,805.145630 638.635132,787.945374 
	C647.871948,779.243774 650.696533,770.867859 650.200684,759.077515 
	C649.437927,740.944275 650.058228,722.755005 649.940247,704.590454 
	C649.921509,701.702515 650.719116,699.648010 652.807495,697.611694 
	C662.825439,687.843750 672.684937,677.913269 682.887390,667.755005 
	C680.881287,666.561096 679.061768,667.034546 677.381226,667.027466 
	C665.215759,666.976135 653.048584,666.904602 640.885010,667.065613 
	C637.808655,667.106384 636.871521,666.196655 636.934021,663.115662 
	C637.119873,653.953491 637.096985,644.783447 636.944336,635.620056 
	C636.896790,632.766663 637.837463,631.941406 640.648193,631.948792 
	C672.145569,632.031311 703.643372,632.042603 735.140564,631.935303 
	C738.252930,631.924683 739.124207,632.868591 739.063538,635.909241 
	C738.884216,644.904968 738.857849,653.909973 739.073059,662.904114 
	C739.153015,666.242615 738.043945,667.099243 734.826294,667.066772 
	C719.828979,666.915405 704.826721,667.151855 689.832153,666.899475 
	C685.781921,666.831360 684.884521,668.097046 684.915283,671.937195 
	C685.090149,693.767456 685.049866,715.600098 684.940125,737.431213 
	C684.925598,740.324585 685.755127,742.357727 687.823486,744.402161 
	C702.283203,758.694641 716.541809,773.191040 731.050110,787.433411 
	C734.054810,790.382935 734.546509,792.168030 731.257080,795.389526 
	C715.184265,811.130310 699.314697,827.080322 683.508545,843.089966 
	C681.303711,845.323181 679.101440,846.066162 676.067688,846.056763 
	C645.736511,845.963135 615.404846,845.999634 584.647034,845.997009 
z"/>
<path fill="#939F90" opacity="1.000000" stroke="none" 
	d="
M736.071350,736.568848 
	C743.735657,739.796143 746.840332,745.777283 746.892822,753.182129 
	C746.944824,760.517334 743.475220,766.385742 736.469421,769.076721 
	C727.043152,772.697327 716.895325,769.590576 712.610657,759.035034 
	C708.951416,750.020386 714.872070,738.798462 724.180603,735.989563 
	C728.196289,734.777710 731.914551,735.692017 736.071350,736.568848 
z"/>
<path fill="#939F90" opacity="1.000000" stroke="none" 
	d="
M621.629761,479.182434 
	C615.287354,468.798859 621.270203,454.543182 633.945740,452.387573 
	C642.365417,450.955811 651.410278,456.842041 653.791077,464.905334 
	C656.351318,473.576324 651.845093,482.952240 643.527283,486.064178 
	C636.964661,488.519470 626.231323,487.696869 621.629761,479.182434 
z"/>
<path fill="#939F90" opacity="1.000000" stroke="none" 
	d="
M488.493958,683.963440 
	C483.975311,693.255188 477.351715,696.695679 467.687714,694.980713 
	C460.314331,693.672241 454.675842,686.855286 454.038757,678.479187 
	C453.512939,671.566101 458.723145,664.547668 465.351013,661.770508 
	C477.265808,656.778137 491.134094,666.126404 489.025299,678.674255 
	C488.752747,680.295776 488.824249,681.975098 488.493958,683.963440 
z"/>
<path fill="#FFFFFF" opacity="1.000000" stroke="none" 
	d="
M410.764038,719.931152 
	C424.599487,726.371826 438.204651,732.679138 451.614624,739.377258 
	C455.351379,741.243713 457.683411,741.120789 460.650940,737.982361 
	C472.302094,725.660156 484.248779,713.617737 496.035675,701.423035 
	C497.833282,699.563293 499.023804,698.383301 501.545898,700.928650 
	C524.067261,723.657715 546.737366,746.239380 569.356750,768.871399 
	C569.785522,769.300476 570.129272,769.814514 571.087341,771.000000 
	C563.709717,771.000000 557.129822,771.000000 550.549927,771.000000 
	C535.217773,771.000000 519.884949,770.930359 504.553925,771.061646 
	C501.654724,771.086426 499.619232,770.242554 497.582306,768.170227 
	C491.296631,761.775452 484.881866,755.503723 479.152435,748.596252 
	C476.968750,745.963562 475.446075,745.857239 472.908569,748.441345 
	C467.346252,754.106079 461.377716,759.371948 455.455719,764.912354 
	C440.502014,750.243774 425.666107,735.690735 410.682526,720.843628 
	C410.509888,720.348206 410.484924,720.146790 410.764038,719.931152 
z"/>
<path fill="#FFFFFF" opacity="1.000000" stroke="none" 
	d="
M410.672729,720.395264 
	C410.107819,720.219482 409.310547,720.142700 409.585358,719.348694 
	C409.621399,719.244507 410.378418,719.389771 410.934814,719.668213 
	C411.068085,719.916870 410.810638,720.240967 410.672729,720.395264 
z"/>
<path fill="#FFFFFF" opacity="1.000000" stroke="none" 
	d="
M636.750000,517.250000 
	C646.189331,526.688660 655.271973,535.988220 664.634399,544.997009 
	C667.375610,547.634705 666.897461,549.247253 664.302063,551.209778 
	C661.949036,552.989014 660.543518,557.255859 656.398560,553.051086 
	C652.130005,548.721008 647.100159,545.151367 642.640686,540.994507 
	C640.878235,539.351562 640.012024,539.352844 638.357239,541.054382 
	C631.272705,548.339050 624.093323,555.534363 616.812927,562.623108 
	C615.152893,564.239380 614.972900,565.967468 614.982361,568.007935 
	C615.023376,576.837830 614.863403,585.671265 615.069824,594.496521 
	C615.147888,597.834656 614.410522,599.151794 610.735596,599.085693 
	C598.244202,598.860718 585.743774,598.859497 573.252502,599.086182 
	C569.561157,599.153137 568.903076,597.800659 568.932129,594.485535 
	C569.079712,577.659668 569.057495,560.831421 568.938965,544.005127 
	C568.920898,541.432678 569.743103,539.674194 571.519287,537.913208 
	C585.006592,524.541199 598.459717,511.133667 611.795532,497.611053 
	C613.842224,495.535706 614.909790,495.150879 617.125977,497.499908 
	C623.411682,504.162506 630.019226,510.521454 636.750000,517.250000 
z"/>
<path fill="#FFFFFF" opacity="1.000000" stroke="none" 
	d="
M688.250000,823.250000 
	C680.559753,834.244202 670.428101,837.139038 657.554199,836.276794 
	C640.696655,835.147644 623.706421,836.000000 606.586304,836.000000 
	C606.999268,833.787537 608.574829,832.970520 609.678894,831.862305 
	C625.318115,816.163940 640.943848,800.451172 656.724548,784.895752 
	C659.198853,782.456848 660.093933,780.018738 660.072449,776.602295 
	C659.931702,754.277344 660.046875,731.950867 659.942139,709.625549 
	C659.928650,706.749023 660.658203,704.655640 662.774109,702.629883 
	C666.951477,698.630554 670.827393,694.316406 676.000000,690.638916 
	C676.000000,692.201355 676.000000,693.763733 676.000000,695.326172 
	C676.000000,710.987549 676.130676,726.650818 675.906921,742.308960 
	C675.851929,746.158386 677.098206,748.757935 679.783020,751.388489 
	C692.040344,763.397766 703.958008,775.756592 716.333252,787.640381 
	C719.773010,790.943604 719.203979,792.562256 716.137573,795.503052 
	C706.760132,804.496704 697.689819,813.810669 688.250000,823.250000 
z"/>
<path fill="#FFFFFF" opacity="1.000000" stroke="none" 
	d="
M727.654175,760.307373 
	C722.834839,758.378113 720.867126,754.687927 722.266174,750.491882 
	C723.530151,746.701111 726.492126,745.026794 730.209656,745.207153 
	C733.297852,745.356934 737.215515,750.520081 736.973938,753.417786 
	C736.655945,757.232117 732.383545,760.598999 727.654175,760.307373 
z"/>
<path fill="#FFFFFF" opacity="1.000000" stroke="none" 
	d="
M629.636963,466.928406 
	C632.001343,463.703766 634.618958,461.385193 638.447571,462.319458 
	C641.517517,463.068665 643.525696,465.417969 643.929993,468.645874 
	C644.288818,471.510529 643.903259,474.283966 641.055176,475.961975 
	C638.552002,477.436829 635.705566,478.151184 633.265625,476.505249 
	C630.136536,474.394531 628.048828,471.407166 629.636963,466.928406 
z"/>
<path fill="#FFFFFF" opacity="1.000000" stroke="none" 
	d="
M464.058350,677.244751 
	C468.158295,669.230591 473.273834,667.893921 477.776428,673.290466 
	C480.376648,676.406921 480.127258,680.460876 477.158020,683.342224 
	C474.190735,686.221680 470.155182,686.346924 467.108521,683.589294 
	C465.352661,682.000000 464.025116,680.142639 464.058350,677.244751 
z"/>
</svg>